M48
; DRILL file KiCad 10.0.1 date 2026-09-02T19:20:31
; FORMAT={-:-/ absolute / metric / decimal}
; #@! TF.CreationDate,2026-09-02T19:20:31+01:00
; #@! TF.GenerationSoftware,Kicad,Pcbnew,10.0.1
; #@! TF.FileFunction,Plated,1,2,PTH
FMAT,2
METRIC
; #@! TA.AperFunction,Plated,PTH,ViaDrill
T1C0.400
; #@! TA.AperFunction,Plated,PTH,ComponentDrill
T2C0.700
; #@! TA.AperFunction,Plated,PTH,ViaDrill
T3C1.000
; #@! TA.AperFunction,Plated,PTH,ComponentDrill
T4C1.000
; #@! TA.AperFunction,Plated,PTH,ComponentDrill
T5C1.020
; #@! TA.AperFunction,Plated,PTH,ComponentDrill
T6C1.800
; #@! TA.AperFunction,Plated,PTH,ComponentDrill
T7C1.850
; #@! TA.AperFunction,Plated,PTH,ComponentDrill
T8C3.000
; #@! TA.AperFunction,Plated,PTH,ComponentDrill
T9C3.750
%
G90
G05
T1
X147.95Y-106.65
T2
X119.5Y-91.5
X119.5Y-111.5
X121.88Y-117.0
X127.12Y-91.5
X127.12Y-111.5
X129.5Y-117.0
X133.19Y-116.5
X139.865Y-99.0
X140.81Y-116.5
X147.485Y-99.0
X150.5Y-94.102
X150.5Y-101.722
T3
X142.5Y-106.5
X154.432Y-93.726
X154.5Y-102.2
X154.5Y-110.6
X154.5Y-119.0
T4
X92.5Y-138.0
X97.0Y-71.0
X99.54Y-71.0
X104.6Y-70.875
X104.6Y-73.415
X104.6Y-75.955
X105.5Y-81.46
X105.5Y-84.0
X106.0Y-91.5
X108.04Y-81.46
X108.04Y-84.0
X110.58Y-81.46
X110.58Y-84.0
X136.0Y-108.0
X138.0Y-94.0
X144.5Y-94.0
X152.0Y-124.5
X152.0Y-131.0
T5
X110.2Y-70.96
X110.2Y-73.5
X110.2Y-76.04
T6
X92.825Y-78.9
X92.825Y-83.1
X92.825Y-87.3
X92.825Y-91.5
X92.825Y-95.7
X92.825Y-99.9
X92.825Y-104.1
X92.825Y-108.3
X92.825Y-112.5
X92.825Y-116.7
X92.825Y-120.9
X92.825Y-125.1
X98.325Y-78.9
X98.325Y-83.1
X98.325Y-87.3
X98.325Y-91.5
X98.325Y-95.7
X98.325Y-99.9
X98.325Y-104.1
X98.325Y-108.3
X98.325Y-112.5
X98.325Y-116.7
X98.325Y-120.9
X98.325Y-125.1
X131.0Y-125.2
X131.0Y-130.7
X135.2Y-125.2
X135.2Y-130.7
X139.4Y-125.2
X139.4Y-130.7
X143.6Y-125.2
X143.6Y-130.7
T7
X103.7Y-125.3
X103.7Y-130.8
X107.9Y-125.3
X107.9Y-130.8
X112.1Y-125.3
X112.1Y-130.8
T8
X96.5Y-133.5
X121.5Y-123.5
T9
X127.5Y-102.5
X150.5Y-75.5
M30
