%TF.GenerationSoftware,KiCad,Pcbnew,10.0.1*%
%TF.CreationDate,2026-09-02T20:14:32+01:00*%
%TF.ProjectId,ATX5VBoost RevA,41545835-5642-46f6-9f73-742052657641,rev?*%
%TF.SameCoordinates,Original*%
%TF.FileFunction,Soldermask,Bot*%
%TF.FilePolarity,Negative*%
%FSLAX46Y46*%
G04 Gerber Fmt 4.6, Leading zero omitted, Abs format (unit mm)*
G04 Created by KiCad (PCBNEW 10.0.1) date 2026-09-02 20:14:32*
%MOMM*%
%LPD*%
G01*
G04 APERTURE LIST*
G04 Aperture macros list*
%AMRoundRect*
0 Rectangle with rounded corners*
0 $1 Rounding radius*
0 $2 $3 $4 $5 $6 $7 $8 $9 X,Y pos of 4 corners*
0 Add a 4 corners polygon primitive as box body*
4,1,4,$2,$3,$4,$5,$6,$7,$8,$9,$2,$3,0*
0 Add four circle primitives for the rounded corners*
1,1,$1+$1,$2,$3*
1,1,$1+$1,$4,$5*
1,1,$1+$1,$6,$7*
1,1,$1+$1,$8,$9*
0 Add four rect primitives between the rounded corners*
20,1,$1+$1,$2,$3,$4,$5,0*
20,1,$1+$1,$4,$5,$6,$7,0*
20,1,$1+$1,$6,$7,$8,$9,0*
20,1,$1+$1,$8,$9,$2,$3,0*%
%AMOutline5P*
0 Free polygon, 5 corners , with rotation*
0 The origin of the aperture is its center*
0 number of corners: always 5*
0 $1 to $10 corner X, Y*
0 $11 Rotation angle, in degrees counterclockwise*
0 create outline with 5 corners*
4,1,5,$1,$2,$3,$4,$5,$6,$7,$8,$9,$10,$1,$2,$11*%
%AMOutline6P*
0 Free polygon, 6 corners , with rotation*
0 The origin of the aperture is its center*
0 number of corners: always 6*
0 $1 to $12 corner X, Y*
0 $13 Rotation angle, in degrees counterclockwise*
0 create outline with 6 corners*
4,1,6,$1,$2,$3,$4,$5,$6,$7,$8,$9,$10,$11,$12,$1,$2,$13*%
%AMOutline7P*
0 Free polygon, 7 corners , with rotation*
0 The origin of the aperture is its center*
0 number of corners: always 7*
0 $1 to $14 corner X, Y*
0 $15 Rotation angle, in degrees counterclockwise*
0 create outline with 7 corners*
4,1,7,$1,$2,$3,$4,$5,$6,$7,$8,$9,$10,$11,$12,$13,$14,$1,$2,$15*%
%AMOutline8P*
0 Free polygon, 8 corners , with rotation*
0 The origin of the aperture is its center*
0 number of corners: always 8*
0 $1 to $16 corner X, Y*
0 $17 Rotation angle, in degrees counterclockwise*
0 create outline with 8 corners*
4,1,8,$1,$2,$3,$4,$5,$6,$7,$8,$9,$10,$11,$12,$13,$14,$15,$16,$1,$2,$17*%
G04 Aperture macros list end*
%ADD10RoundRect,0.250002X-2.749998X-2.749998X2.749998X-2.749998X2.749998X2.749998X-2.749998X2.749998X0*%
%ADD11RoundRect,0.249999X-1.950001X-1.950001X1.950001X-1.950001X1.950001X1.950001X-1.950001X1.950001X0*%
%ADD12R,1.700000X1.700000*%
%ADD13C,1.700000*%
%ADD14O,2.030000X1.730000*%
%ADD15R,2.030000X1.730000*%
%ADD16R,2.000000X2.000000*%
%ADD17C,2.000000*%
%ADD18C,2.700000*%
%ADD19R,2.700000X2.700000*%
%ADD20C,3.000000*%
%ADD21R,4.000000X2.286000*%
%ADD22Outline5P,-1.143000X1.542800X-0.685800X2.000000X1.143000X2.000000X1.143000X-2.000000X-1.143000X-2.000000X90.000000*%
%ADD23C,2.775000*%
%ADD24C,3.050000*%
%ADD25C,1.400000*%
%ADD26C,5.300000*%
G04 APERTURE END LIST*
D10*
%TO.C,GND2*%
X127500000Y-102500000D03*
%TD*%
D11*
%TO.C,GND1*%
X121500000Y-123500000D03*
%TD*%
%TO.C,12V*%
X96500000Y-133500000D03*
%TD*%
D10*
%TO.C,5V*%
X150500000Y-75500000D03*
%TD*%
D12*
%TO.C,Fan+sel*%
X104600000Y-70875000D03*
D13*
X104600000Y-73415000D03*
X104600000Y-75955000D03*
%TD*%
D14*
%TO.C,J3*%
X110200000Y-70960000D03*
X110200000Y-73500000D03*
D15*
X110200000Y-76040000D03*
%TD*%
D12*
%TO.C,PS_ON*%
X97000000Y-71000000D03*
D13*
X99540000Y-71000000D03*
%TD*%
D16*
%TO.C,TP1*%
X152000000Y-131000000D03*
%TD*%
D17*
%TO.C,TP2*%
X92500000Y-138000000D03*
%TD*%
%TO.C,TP3*%
X144500000Y-94000000D03*
%TD*%
%TO.C,TP4*%
X106000000Y-91500000D03*
%TD*%
%TO.C,TP5*%
X152000000Y-124500000D03*
%TD*%
%TO.C,TP6*%
X138000000Y-94000000D03*
%TD*%
%TO.C,TP7*%
X136000000Y-108000000D03*
%TD*%
D18*
%TO.C,EPS12V*%
X131000000Y-125200000D03*
X135200000Y-125200000D03*
X139400000Y-125200000D03*
X143600000Y-125200000D03*
X131000000Y-130700000D03*
X135200000Y-130700000D03*
X139400000Y-130700000D03*
D19*
X143600000Y-130700000D03*
D20*
X143600000Y-138000000D03*
X131000000Y-138000000D03*
%TD*%
D13*
%TO.C,Fan-sel*%
X110580000Y-81460000D03*
X110580000Y-84000000D03*
X108040000Y-81460000D03*
X108040000Y-84000000D03*
X105500000Y-81460000D03*
D12*
X105500000Y-84000000D03*
%TD*%
D21*
%TO.C,Motherboard conn*%
X154500000Y-81200000D03*
X154500000Y-85400000D03*
X154500000Y-89600000D03*
X154500000Y-93800000D03*
X154500000Y-98000000D03*
X154500000Y-102200000D03*
X154500000Y-106400000D03*
X154500000Y-110600000D03*
X154500000Y-114800000D03*
D22*
X154500000Y-119000000D03*
%TD*%
D23*
%TO.C,PCIE*%
X103700000Y-125300000D03*
X107900000Y-125300000D03*
X112100000Y-125300000D03*
X103700000Y-130800000D03*
X107900000Y-130800000D03*
X112100000Y-130800000D03*
D24*
X112100000Y-138100000D03*
X103700000Y-138100000D03*
%TD*%
D18*
%TO.C,PSU*%
X98325000Y-78900000D03*
X98325000Y-83100000D03*
X98325000Y-87300000D03*
X98325000Y-91500000D03*
X98325000Y-95700000D03*
X98325000Y-99900000D03*
X98325000Y-104100000D03*
X98325000Y-108300000D03*
X98325000Y-112500000D03*
X98325000Y-116700000D03*
X98325000Y-120900000D03*
X98325000Y-125100000D03*
X92825000Y-78900000D03*
X92825000Y-83100000D03*
X92825000Y-87300000D03*
X92825000Y-91500000D03*
X92825000Y-95700000D03*
X92825000Y-99900000D03*
X92825000Y-104100000D03*
X92825000Y-108300000D03*
X92825000Y-112500000D03*
X92825000Y-116700000D03*
X92825000Y-120900000D03*
D19*
X92825000Y-125100000D03*
D20*
X85525000Y-125100000D03*
X85525000Y-78900000D03*
%TD*%
D25*
%TO.C,R3*%
X150500000Y-101722500D03*
X150500000Y-94102500D03*
%TD*%
%TO.C,R4*%
X127120000Y-91500000D03*
X119500000Y-91500000D03*
%TD*%
%TO.C,R5*%
X121880000Y-117000000D03*
X129500000Y-117000000D03*
%TD*%
%TO.C,R7*%
X133190000Y-116500000D03*
X140810000Y-116500000D03*
%TD*%
%TO.C,R10*%
X127120000Y-111500000D03*
X119500000Y-111500000D03*
%TD*%
%TO.C,R11*%
X139865000Y-99000000D03*
X147485000Y-99000000D03*
%TD*%
D26*
%TO.C,REF\u002A\u002A*%
X120000000Y-71600000D03*
%TD*%
%TO.C,REF\u002A\u002A*%
X120000000Y-136700000D03*
%TD*%
M02*
