%TF.GenerationSoftware,KiCad,Pcbnew,10.0.1*%
%TF.CreationDate,2026-09-02T20:14:32+01:00*%
%TF.ProjectId,ATX5VBoost RevA,41545835-5642-46f6-9f73-742052657641,rev?*%
%TF.SameCoordinates,Original*%
%TF.FileFunction,Paste,Top*%
%TF.FilePolarity,Positive*%
%FSLAX46Y46*%
G04 Gerber Fmt 4.6, Leading zero omitted, Abs format (unit mm)*
G04 Created by KiCad (PCBNEW 10.0.1) date 2026-09-02 20:14:32*
%MOMM*%
%LPD*%
G01*
G04 APERTURE LIST*
G04 Aperture macros list*
%AMRoundRect*
0 Rectangle with rounded corners*
0 $1 Rounding radius*
0 $2 $3 $4 $5 $6 $7 $8 $9 X,Y pos of 4 corners*
0 Add a 4 corners polygon primitive as box body*
4,1,4,$2,$3,$4,$5,$6,$7,$8,$9,$2,$3,0*
0 Add four circle primitives for the rounded corners*
1,1,$1+$1,$2,$3*
1,1,$1+$1,$4,$5*
1,1,$1+$1,$6,$7*
1,1,$1+$1,$8,$9*
0 Add four rect primitives between the rounded corners*
20,1,$1+$1,$2,$3,$4,$5,0*
20,1,$1+$1,$4,$5,$6,$7,0*
20,1,$1+$1,$6,$7,$8,$9,0*
20,1,$1+$1,$8,$9,$2,$3,0*%
G04 Aperture macros list end*
%ADD10RoundRect,0.250000X0.450000X-0.325000X0.450000X0.325000X-0.450000X0.325000X-0.450000X-0.325000X0*%
%ADD11RoundRect,0.250000X0.325000X0.450000X-0.325000X0.450000X-0.325000X-0.450000X0.325000X-0.450000X0*%
%ADD12RoundRect,0.250000X-0.450000X0.325000X-0.450000X-0.325000X0.450000X-0.325000X0.450000X0.325000X0*%
%ADD13RoundRect,0.250000X-0.325000X-0.450000X0.325000X-0.450000X0.325000X0.450000X-0.325000X0.450000X0*%
%ADD14RoundRect,0.150000X-0.150000X0.825000X-0.150000X-0.825000X0.150000X-0.825000X0.150000X0.825000X0*%
%ADD15R,4.000000X2.286000*%
%ADD16RoundRect,0.237500X-0.237500X0.250000X-0.237500X-0.250000X0.237500X-0.250000X0.237500X0.250000X0*%
%ADD17RoundRect,0.237500X-0.250000X-0.237500X0.250000X-0.237500X0.250000X0.237500X-0.250000X0.237500X0*%
%ADD18RoundRect,0.237500X0.250000X0.237500X-0.250000X0.237500X-0.250000X-0.237500X0.250000X-0.237500X0*%
G04 APERTURE END LIST*
D10*
%TO.C,LED1*%
X148000000Y-92975000D03*
X148000000Y-95025000D03*
%TD*%
D11*
%TO.C,LED2*%
X110172500Y-91500000D03*
X112222500Y-91500000D03*
%TD*%
D12*
%TO.C,LED3*%
X130000000Y-121525000D03*
X130000000Y-119475000D03*
%TD*%
D13*
%TO.C,LED4*%
X149025000Y-116500000D03*
X146975000Y-116500000D03*
%TD*%
D11*
%TO.C,LED5*%
X110475000Y-111500000D03*
X112525000Y-111500000D03*
%TD*%
D12*
%TO.C,LED6*%
X141500000Y-103525000D03*
X141500000Y-101475000D03*
%TD*%
D14*
%TO.C,U1*%
X137905000Y-102975000D03*
X136635000Y-102975000D03*
X135365000Y-102975000D03*
X134095000Y-102975000D03*
X134095000Y-98025000D03*
X135365000Y-98025000D03*
X136635000Y-98025000D03*
X137905000Y-98025000D03*
%TD*%
D15*
%TO.C,Motherboard conn*%
X154500000Y-81200000D03*
X154500000Y-85400000D03*
X154500000Y-89600000D03*
X154500000Y-93800000D03*
X154500000Y-98000000D03*
X154500000Y-102200000D03*
X154500000Y-106400000D03*
X154500000Y-110600000D03*
X154500000Y-114800000D03*
X154500000Y-119000000D03*
%TD*%
D16*
%TO.C,R1*%
X150500000Y-98825000D03*
X150500000Y-97000000D03*
%TD*%
D17*
%TO.C,R2*%
X124222500Y-91500000D03*
X122397500Y-91500000D03*
%TD*%
D18*
%TO.C,R6*%
X124777500Y-117000000D03*
X126602500Y-117000000D03*
%TD*%
%TO.C,R8*%
X136087500Y-116500000D03*
X137912500Y-116500000D03*
%TD*%
D17*
%TO.C,R9*%
X124222500Y-111500000D03*
X122397500Y-111500000D03*
%TD*%
D18*
%TO.C,R12*%
X142675000Y-99000000D03*
X144500000Y-99000000D03*
%TD*%
M02*
